<svg width="1920" height="2514" viewBox="0 0 1920 2514" fill="none" xmlns="http://www.w3.org/2000/svg">
<path fill-rule="evenodd" clip-rule="evenodd" d="M1920 560V1793L1442 2078.5C1419.5 2088 1361.2 2101.3 1308 2078.5C1261.91 2058.75 542.092 1854.8 144.389 1742.12C83.0439 1724.74 29.3625 1709.53 -13 1697.5V1063.09C35.9625 1050.23 84.9636 1037.36 133.995 1024.48C729.375 868.103 1329.3 710.53 1920 560Z" fill="#F1F2F2"/>
<path fill-rule="evenodd" clip-rule="evenodd" d="M0 1917.09V2215L478 2500.5C500.5 2510 558.8 2523.3 612 2500.5C658.09 2480.75 1377.9 2276.8 1775.6 2164.12C1836.95 2146.74 1890.64 2131.53 1933 2119.5V2012.59C1890.64 2000.56 1836.96 1985.35 1775.61 1967.97C1377.91 1855.29 658.091 1651.34 612 1631.59C558.8 1608.79 500.5 1622.09 478 1631.59L0 1917.09Z" fill="#E4F9F3"/>
<path fill-rule="evenodd" clip-rule="evenodd" d="M1933 -10H0V706L478 991.5C500.5 1001 558.8 1014.3 612 991.5C658.091 971.747 1377.91 767.799 1775.61 655.117C1836.96 637.736 1890.64 622.527 1933 610.5V-10Z" fill="#E4F9F3"/>
</svg>
