<svg width="80" height="80" viewBox="0 0 80 80" fill="none" xmlns="http://www.w3.org/2000/svg">
<path d="M73.7346 65.3152L55.2405 55.6599H31.2282L2.19434 25.2519L8.24532 19.6836L34.6286 47.9535H57.3794L77.8058 58.5108L73.7346 65.3152Z" fill="#E4F9F3"/>
<path d="M23.1357 11.5825C26.152 7.52801 31.8856 6.68054 35.9437 9.69329C40.0026 12.7096 40.8474 18.4414 37.8338 22.5012L23.1357 11.5825Z" fill="#E4F9F3"/>
<path d="M62.7647 68.1812H21.1885V74.9258H62.7647V68.1812Z" fill="#E4F9F3"/>
<path d="M79.6786 57.9781C79.5309 57.4594 79.1793 57.0277 78.701 56.7825L64.7124 49.5526V5.07169C64.7124 3.9974 63.8404 3.12708 62.7652 3.12708H43.9661C43.625 3.12708 43.2892 3.21762 42.9946 3.38554L35.9995 7.41718C34.3265 6.45455 32.4478 5.94202 30.4935 5.94202C26.9946 5.94202 23.6601 7.61674 21.574 10.4211L20.4127 11.9833L38.2377 25.2255L39.3982 23.6633C42.4681 19.5271 42.2149 13.9455 39.1344 10.1038L44.4874 7.01894H60.8197V47.5411L58.2738 46.226C57.9977 46.0818 57.6909 46.0088 57.3797 46.0088H45.9643L48.3089 41.2247H55.7788V37.3328H35.7859V41.2247H43.9731L41.6285 46.0088H35.4746L9.66893 18.3543C8.93926 17.5728 7.71552 17.5253 6.92783 18.2515L0.875962 23.8207C0.491786 24.1741 0.265852 24.6664 0.249149 25.1886C0.231566 25.7126 0.424973 26.2198 0.786292 26.5978L29.8201 57.0049C29.9177 57.1077 30.0276 57.1965 30.1437 57.2739V66.2356H19.2426V76.873H64.7124V66.2356H52.6659V57.6071H54.7626L72.8355 67.0418C73.1212 67.1912 73.4307 67.2625 73.7331 67.2625C74.3986 67.2625 75.0412 66.9222 75.4052 66.3148L79.4764 59.5104C79.7542 59.0488 79.8263 58.495 79.6786 57.9781ZM37.2171 19.6176L26.0707 11.3372C27.3173 10.3675 28.8566 9.83477 30.4918 9.83477C32.047 9.83477 33.53 10.3262 34.7819 11.2563C37.4316 13.2238 38.3415 16.6761 37.2171 19.6176ZM60.8206 70.1275V72.9803H23.1344V70.1275H30.1437V70.1284H52.6659V70.1275H60.8206ZM34.0364 66.2356V57.6088H48.774V66.2356H34.0364ZM73.0078 62.7403L56.1401 53.9359C55.8623 53.7899 55.5529 53.7152 55.2399 53.7152H32.0619L4.97091 25.3425L8.14102 22.4255L33.2048 49.2827C33.5731 49.6774 34.0883 49.9016 34.6281 49.9016H56.905L75.0729 59.2897L73.0078 62.7403Z" fill="#015B64"/>
</svg>
