<svg width="1920" height="2324" viewBox="0 0 1920 2324" fill="none" xmlns="http://www.w3.org/2000/svg">
<path fill-rule="evenodd" clip-rule="evenodd" d="M0 1497.09V2025L478 2310.5C500.5 2320 558.8 2333.3 612 2310.5C658.091 2290.75 1377.91 2086.8 1775.61 1974.12C1836.96 1956.74 1890.64 1941.53 1933 1929.5V1592.59C1890.64 1580.56 1836.96 1565.35 1775.61 1547.97C1377.91 1435.29 658.091 1231.34 612 1211.59C558.8 1188.79 500.5 1202.09 478 1211.59L0 1497.09Z" fill="#E4F9F3"/>
<path fill-rule="evenodd" clip-rule="evenodd" d="M1907.47 447L1920 447V1253L1442 1538.5C1419.5 1548 1361.2 1561.3 1308 1538.5C1261.91 1518.75 542.092 1314.8 144.389 1202.12C83.0439 1184.74 29.3625 1169.53 -13 1157.5V1073.16C35.9835 1057.04 85.0056 1040.92 134.058 1024.78C725.208 830.293 1320.84 634.334 1907.47 447Z" fill="#F1F2F2"/>
<path fill-rule="evenodd" clip-rule="evenodd" d="M1933 0H0V716L478 1001.5C500.5 1011 558.8 1024.3 612 1001.5C658.091 981.747 1377.91 777.799 1775.61 665.117C1836.96 647.736 1890.64 632.527 1933 620.5V0Z" fill="#E4F9F3"/>
</svg>
