<svg width="185" height="180" viewBox="0 0 185 180" fill="none" xmlns="http://www.w3.org/2000/svg">
<g clip-path="url(#clip0_1_181)">
<circle cx="10" cy="2" r="2" fill="#015B64"/>
<circle cx="34" cy="2" r="2" fill="#015B64"/>
<circle cx="58" cy="2" r="2" fill="#015B64"/>
<circle cx="82" cy="2" r="2" fill="#015B64"/>
<circle cx="106" cy="2" r="2" fill="#015B64"/>
<circle cx="130" cy="2" r="2" fill="#015B64"/>
<circle cx="154" cy="2" r="2" fill="#015B64"/>
<circle cx="178" cy="2" r="2" fill="#015B64"/>
<circle cx="10" cy="26" r="2" fill="#015B64"/>
<circle cx="34" cy="26" r="2" fill="#015B64"/>
<circle cx="58" cy="26" r="2" fill="#015B64"/>
<circle cx="82" cy="26" r="2" fill="#015B64"/>
<circle cx="106" cy="26" r="2" fill="#015B64"/>
<circle cx="130" cy="26" r="2" fill="#015B64"/>
<circle cx="154" cy="26" r="2" fill="#015B64"/>
<circle cx="178" cy="26" r="2" fill="#015B64"/>
<circle cx="10" cy="50" r="2" fill="#015B64"/>
<circle cx="34" cy="50" r="2" fill="#015B64"/>
<circle cx="58" cy="50" r="2" fill="#015B64"/>
<circle cx="82" cy="50" r="2" fill="#015B64"/>
<circle cx="106" cy="50" r="2" fill="#015B64"/>
<circle cx="130" cy="50" r="2" fill="#015B64"/>
<circle cx="154" cy="50" r="2" fill="#015B64"/>
<circle cx="178" cy="50" r="2" fill="#015B64"/>
<circle cx="10" cy="74" r="2" fill="#015B64"/>
<circle cx="34" cy="74" r="2" fill="#015B64"/>
<circle cx="58" cy="74" r="2" fill="#015B64"/>
<circle cx="82" cy="74" r="2" fill="#015B64"/>
<circle cx="106" cy="74" r="2" fill="#015B64"/>
<circle cx="130" cy="74" r="2" fill="#015B64"/>
<circle cx="154" cy="74" r="2" fill="#015B64"/>
<circle cx="178" cy="74" r="2" fill="#015B64"/>
<circle cx="10" cy="98" r="2" fill="#015B64"/>
<circle cx="34" cy="98" r="2" fill="#015B64"/>
<circle cx="58" cy="98" r="2" fill="#015B64"/>
<circle cx="82" cy="98" r="2" fill="#015B64"/>
<circle cx="106" cy="98" r="2" fill="#015B64"/>
<circle cx="130" cy="98" r="2" fill="#015B64"/>
<circle cx="154" cy="98" r="2" fill="#015B64"/>
<circle cx="178" cy="98" r="2" fill="#015B64"/>
<circle cx="10" cy="122" r="2" fill="#015B64"/>
<circle cx="34" cy="122" r="2" fill="#015B64"/>
<circle cx="58" cy="122" r="2" fill="#015B64"/>
<circle cx="82" cy="122" r="2" fill="#015B64"/>
<circle cx="106" cy="122" r="2" fill="#015B64"/>
<circle cx="130" cy="122" r="2" fill="#015B64"/>
<circle cx="154" cy="122" r="2" fill="#015B64"/>
<circle cx="178" cy="122" r="2" fill="#015B64"/>
<circle cx="10" cy="146" r="2" fill="#015B64"/>
<circle cx="34" cy="146" r="2" fill="#015B64"/>
<circle cx="58" cy="146" r="2" fill="#015B64"/>
<circle cx="82" cy="146" r="2" fill="#015B64"/>
<circle cx="106" cy="146" r="2" fill="#015B64"/>
<circle cx="130" cy="146" r="2" fill="#015B64"/>
<circle cx="154" cy="146" r="2" fill="#015B64"/>
<circle cx="178" cy="146" r="2" fill="#015B64"/>
<circle cx="10" cy="170" r="2" fill="#015B64"/>
<circle cx="34" cy="170" r="2" fill="#015B64"/>
<circle cx="58" cy="170" r="2" fill="#015B64"/>
<circle cx="82" cy="170" r="2" fill="#015B64"/>
<circle cx="106" cy="170" r="2" fill="#015B64"/>
<circle cx="130" cy="170" r="2" fill="#015B64"/>
<circle cx="154" cy="170" r="2" fill="#015B64"/>
<circle cx="178" cy="170" r="2" fill="#015B64"/>
</g>
<defs>
<clipPath id="clip0_1_181">
<rect width="185" height="180" fill="white"/>
</clipPath>
</defs>
</svg>
