<svg width="195" height="57" viewBox="0 0 195 57" fill="none" xmlns="http://www.w3.org/2000/svg">
<g clip-path="url(#clip0_6038_617)">
<path d="M3.68555 51.5143C3.68555 51.5143 96.7284 4.15713 192 23.5714L3.68555 51.5143Z" fill="url(#paint0_linear_6038_617)"/>
<path d="M23.2627 7.69346C26.671 7.69346 29.3783 9.05589 31.3847 11.7808C33.47 9.05589 36.1817 7.69346 39.5199 7.69346C42.6741 7.69346 45.2193 8.73171 47.1556 10.8082C49.1007 12.876 50.0733 15.7322 50.0733 19.3771V34.7143H45.3814V18.5097C45.3814 16.6259 44.8338 15.1146 43.7386 13.9755C42.6522 12.8365 41.2459 12.267 39.5199 12.267C37.8377 12.267 36.4577 12.8365 35.38 13.9755C34.3023 15.1146 33.7635 16.6259 33.7635 18.5097V34.7143H29.0717V18.5097C29.0717 16.6259 28.5284 15.1146 27.442 13.9755C26.3556 12.8365 24.9625 12.267 23.2627 12.267C21.5542 12.267 20.1567 12.8365 19.0703 13.9755C17.9926 15.1146 17.4537 16.6259 17.4537 18.5097V34.7143H12.7619V19.3771C12.7619 15.706 13.7213 12.8409 15.6401 10.7819C17.5676 8.72295 20.1085 7.69346 23.2627 7.69346ZM78.4215 8.06145V22.597C78.4215 25.2167 77.944 27.4728 76.989 29.3653C76.0427 31.2491 74.7109 32.686 72.9937 33.676C71.2851 34.6573 69.3269 35.148 67.119 35.148C63.737 35.148 61.0165 34.0396 58.9575 31.823C56.8986 29.6063 55.8691 26.5309 55.8691 22.597V8.06145H60.5609V23.4644C60.5609 25.5672 61.183 27.2801 62.4271 28.6031C63.6801 29.9173 65.2615 30.5744 67.1716 30.5744C68.4157 30.5744 69.5372 30.2765 70.536 29.6807C71.5348 29.085 72.319 28.2482 72.8885 27.1705C73.458 26.0929 73.7428 24.8575 73.7428 23.4644V8.06145H78.4215ZM83.0739 21.3616C83.0739 19.0222 83.6741 16.7924 84.8744 14.6721C86.0748 12.5518 87.7044 10.8608 89.7634 9.59911C91.8311 8.32868 94.0697 7.69346 96.4792 7.69346C100.825 7.69346 104.483 9.6473 107.453 13.555L103.957 16.9457C103.458 15.9557 102.827 15.1014 102.065 14.383C101.302 13.6557 100.444 13.1038 99.4888 12.727C98.5338 12.3503 97.5306 12.1619 96.4792 12.1619C94.9284 12.1619 93.5046 12.5693 92.2079 13.3841C90.9199 14.1902 89.8992 15.3073 89.1457 16.7354C88.401 18.1548 88.0286 19.7144 88.0286 21.4142C88.0286 23.0876 88.4054 24.6384 89.1588 26.0666C89.9123 27.486 90.9375 28.6031 92.2342 29.4179C93.5397 30.224 94.9547 30.627 96.4792 30.627C98.1877 30.627 99.6816 30.1758 100.961 29.2733C102.249 28.3621 103.248 27.1968 103.957 25.7774L107.729 29.0105C106.608 30.7453 105.066 32.2129 103.103 33.4132C101.14 34.6048 98.9324 35.2006 96.4792 35.2006C94.061 35.2006 91.818 34.5697 89.7503 33.3081C87.6913 32.0464 86.0616 30.351 84.8613 28.2219C83.6697 26.0841 83.0739 23.7973 83.0739 21.3616ZM111.974 34.7143V19.3771C111.974 16.7661 112.452 14.5801 113.407 12.819C114.362 11.0579 115.632 9.76558 117.218 8.94199C118.813 8.10963 120.56 7.69346 122.462 7.69346C125.765 7.69346 128.424 8.9858 130.439 11.5705L127.311 14.8561C126.908 14.1113 126.273 13.4937 125.406 13.003C124.538 12.5123 123.579 12.267 122.527 12.267C120.574 12.267 119.124 12.9198 118.177 14.2252C117.231 15.5307 116.758 17.248 116.758 19.3771V34.7143H111.974ZM145.842 7.69346C147.673 7.69346 149.408 8.06145 151.047 8.79742C152.685 9.5334 154.122 10.541 155.357 11.8202C156.593 13.0994 157.556 14.5669 158.249 16.2229C158.95 17.8788 159.3 19.6093 159.3 21.4142C159.3 23.8674 158.704 26.1542 157.513 28.2745C156.321 30.3861 154.696 32.0683 152.637 33.3212C150.578 34.5741 148.313 35.2006 145.842 35.2006C143.424 35.2006 141.185 34.5741 139.126 33.3212C137.067 32.0595 135.438 30.3642 134.237 28.2351C133.037 26.0972 132.437 23.8236 132.437 21.4142C132.437 19.0485 133.037 16.8055 134.237 14.6852C135.438 12.5649 137.067 10.8695 139.126 9.59911C141.185 8.32868 143.424 7.69346 145.842 7.69346ZM145.842 12.1619C143.494 12.1619 141.505 13.0468 139.875 14.8167C138.255 16.5777 137.444 18.7594 137.444 21.3616C137.444 23.9638 138.255 26.1586 139.875 27.9459C141.505 29.7333 143.494 30.627 145.842 30.627C147.375 30.627 148.795 30.2196 150.1 29.4048C151.415 28.5812 152.448 27.4641 153.202 26.0534C153.964 24.6341 154.345 23.0701 154.345 21.3616C154.345 19.6618 153.964 18.111 153.202 16.7092C152.448 15.2985 151.419 14.1902 150.113 13.3841C148.808 12.5693 147.384 12.1619 145.842 12.1619Z" fill="#111111"/>
</g>
<defs>
<linearGradient id="paint0_linear_6038_617" x1="80.3632" y1="7.26183" x2="115.331" y2="67.8325" gradientUnits="userSpaceOnUse">
<stop stop-color="white"/>
<stop offset="0.1292" stop-color="#939393"/>
<stop offset="0.2921" stop-color="#939393"/>
<stop offset="0.5337" stop-color="#575756"/>
<stop offset="0.8034" stop-color="#D6D6D6"/>
<stop offset="1"/>
</linearGradient>
<clipPath id="clip0_6038_617">
<rect width="194.571" height="57" fill="white"/>
</clipPath>
</defs>
</svg>
