<svg width="1920" height="3443" viewBox="0 0 1920 3443" fill="none" xmlns="http://www.w3.org/2000/svg">
<path fill-rule="evenodd" clip-rule="evenodd" d="M0 1062.09V1360L478 1645.5C500.5 1655 558.8 1668.3 612 1645.5C658.09 1625.75 1377.9 1421.8 1775.6 1309.12C1836.95 1291.74 1890.64 1276.53 1933 1264.5V1157.59C1890.64 1145.56 1836.96 1130.35 1775.61 1112.97C1377.91 1000.29 658.091 796.342 612 776.589C558.8 753.789 500.5 767.089 478 776.589L0 1062.09Z" fill="#E4F9F3"/>
<path d="M0 662V-54H1933V566.5C1616 656.5 665.2 924.7 612 947.5C558.8 970.3 500.5 957 478 947.5L0 662Z" fill="url(#paint0_linear_0_1)"/>
<g clip-path="url(#clip0_0_1)">
<path d="M-6 307V-409H1927V211.5C1610 301.5 659.2 569.7 606 592.5C552.8 615.3 494.5 602 472 592.5L-6 307Z" stroke="url(#paint1_linear_0_1)"/>
<path d="M13 461V-255H1946V365.5C1629 455.5 678.2 723.7 625 746.5C571.8 769.3 513.5 756 491 746.5L13 461Z" stroke="url(#paint2_linear_0_1)"/>
<path d="M-6 327V-389H1927V231.5C1610 321.5 659.2 589.7 606 612.5C552.8 635.3 494.5 622 472 612.5L-6 327Z" stroke="url(#paint3_linear_0_1)"/>
<path d="M13 481V-235H1946V385.5C1629 475.5 678.2 743.7 625 766.5C571.8 789.3 513.5 776 491 766.5L13 481Z" stroke="url(#paint4_linear_0_1)"/>
<path d="M-6 346V-370H1927V250.5C1610 340.5 659.2 608.7 606 631.5C552.8 654.3 494.5 641 472 631.5L-6 346Z" stroke="url(#paint5_linear_0_1)"/>
<path d="M13 500V-216H1946V404.5C1629 494.5 678.2 762.7 625 785.5C571.8 808.3 513.5 795 491 785.5L13 500Z" stroke="url(#paint6_linear_0_1)"/>
<path d="M-6 365V-351H1927V269.5C1610 359.5 659.2 627.7 606 650.5C552.8 673.3 494.5 660 472 650.5L-6 365Z" stroke="url(#paint7_linear_0_1)"/>
<path d="M13 519V-197H1946V423.5C1629 513.5 678.2 781.7 625 804.5C571.8 827.3 513.5 814 491 804.5L13 519Z" stroke="url(#paint8_linear_0_1)"/>
<path d="M-6 385V-331H1927V289.5C1610 379.5 659.2 647.7 606 670.5C552.8 693.3 494.5 680 472 670.5L-6 385Z" stroke="url(#paint9_linear_0_1)"/>
<path d="M13 539V-177H1946V443.5C1629 533.5 678.2 801.7 625 824.5C571.8 847.3 513.5 834 491 824.5L13 539Z" stroke="url(#paint10_linear_0_1)"/>
<path d="M-6 408V-308H1927V312.5C1610 402.5 659.2 670.7 606 693.5C552.8 716.3 494.5 703 472 693.5L-6 408Z" stroke="url(#paint11_linear_0_1)"/>
<path d="M13 562V-154H1946V466.5C1629 556.5 678.2 824.7 625 847.5C571.8 870.3 513.5 857 491 847.5L13 562Z" stroke="url(#paint12_linear_0_1)"/>
<path d="M-6 428V-288H1927V332.5C1610 422.5 659.2 690.7 606 713.5C552.8 736.3 494.5 723 472 713.5L-6 428Z" stroke="url(#paint13_linear_0_1)"/>
<path d="M13 582V-134H1946V486.5C1629 576.5 678.2 844.7 625 867.5C571.8 890.3 513.5 877 491 867.5L13 582Z" stroke="url(#paint14_linear_0_1)"/>
<path d="M-6 448V-268H1927V352.5C1610 442.5 659.2 710.7 606 733.5C552.8 756.3 494.5 743 472 733.5L-6 448Z" stroke="url(#paint15_linear_0_1)"/>
<path d="M13 602V-114H1946V506.5C1629 596.5 678.2 864.7 625 887.5C571.8 910.3 513.5 897 491 887.5L13 602Z" stroke="url(#paint16_linear_0_1)"/>
</g>
<path d="M-6 287V-429H1927V191.5C1610 281.5 659.2 549.7 606 572.5C552.8 595.3 494.5 582 472 572.5L-6 287Z" fill="url(#paint17_linear_0_1)"/>
<path fill-rule="evenodd" clip-rule="evenodd" d="M0 2846.09V3144L478 3429.5C500.5 3439 558.8 3452.3 612 3429.5C658.09 3409.75 1377.9 3205.8 1775.6 3093.12C1836.95 3075.74 1890.64 3060.53 1933 3048.5V2941.59C1890.64 2929.56 1836.96 2914.35 1775.61 2896.97C1377.91 2784.29 658.091 2580.34 612 2560.59C558.8 2537.79 500.5 2551.09 478 2560.59L0 2846.09Z" fill="#E4F9F3"/>
<path fill-rule="evenodd" clip-rule="evenodd" d="M1920 1268.09V2673L1442 2958.5C1419.5 2968 1361.2 2981.3 1308 2958.5C1261.91 2938.75 542.092 2734.8 144.389 2622.12C83.0439 2604.74 29.3625 2589.53 -13 2577.5V1823.59C35.9708 1809.39 84.9801 1795.18 134.02 1780.95C729.391 1608.29 1329.31 1434.3 1920 1268.09Z" fill="#F1F2F2"/>
<defs>
<linearGradient id="paint0_linear_0_1" x1="1933" y1="-54" x2="923.649" y2="1292.56" gradientUnits="userSpaceOnUse">
<stop stop-color="#7DC0B9"/>
<stop offset="0.332247" stop-color="#B5D0C9"/>
<stop offset="0.653959" stop-color="#B5D0C9"/>
<stop offset="1" stop-color="#7DC0B9"/>
</linearGradient>
<linearGradient id="paint1_linear_0_1" x1="1927" y1="-409" x2="917.649" y2="937.557" gradientUnits="userSpaceOnUse">
<stop stop-color="#7DC0B9"/>
<stop offset="0.332247" stop-color="#B5D0C9"/>
<stop offset="0.653959" stop-color="#B5D0C9"/>
<stop offset="1" stop-color="#7DC0B9"/>
</linearGradient>
<linearGradient id="paint2_linear_0_1" x1="1946" y1="-255" x2="936.649" y2="1091.56" gradientUnits="userSpaceOnUse">
<stop stop-color="#7DC0B9"/>
<stop offset="0.332247" stop-color="#B5D0C9"/>
<stop offset="0.653959" stop-color="#B5D0C9"/>
<stop offset="1" stop-color="#7DC0B9"/>
</linearGradient>
<linearGradient id="paint3_linear_0_1" x1="1927" y1="-389" x2="917.649" y2="957.557" gradientUnits="userSpaceOnUse">
<stop stop-color="#7DC0B9"/>
<stop offset="0.332247" stop-color="#B5D0C9"/>
<stop offset="0.653959" stop-color="#B5D0C9"/>
<stop offset="1" stop-color="#7DC0B9"/>
</linearGradient>
<linearGradient id="paint4_linear_0_1" x1="1946" y1="-235" x2="936.649" y2="1111.56" gradientUnits="userSpaceOnUse">
<stop stop-color="#7DC0B9"/>
<stop offset="0.332247" stop-color="#B5D0C9"/>
<stop offset="0.653959" stop-color="#B5D0C9"/>
<stop offset="1" stop-color="#7DC0B9"/>
</linearGradient>
<linearGradient id="paint5_linear_0_1" x1="1927" y1="-370" x2="917.649" y2="976.557" gradientUnits="userSpaceOnUse">
<stop stop-color="#7DC0B9"/>
<stop offset="0.332247" stop-color="#B5D0C9"/>
<stop offset="0.653959" stop-color="#B5D0C9"/>
<stop offset="1" stop-color="#7DC0B9"/>
</linearGradient>
<linearGradient id="paint6_linear_0_1" x1="1946" y1="-216" x2="936.649" y2="1130.56" gradientUnits="userSpaceOnUse">
<stop stop-color="#7DC0B9"/>
<stop offset="0.332247" stop-color="#B5D0C9"/>
<stop offset="0.653959" stop-color="#B5D0C9"/>
<stop offset="1" stop-color="#7DC0B9"/>
</linearGradient>
<linearGradient id="paint7_linear_0_1" x1="1927" y1="-351" x2="917.649" y2="995.557" gradientUnits="userSpaceOnUse">
<stop stop-color="#7DC0B9"/>
<stop offset="0.332247" stop-color="#B5D0C9"/>
<stop offset="0.653959" stop-color="#B5D0C9"/>
<stop offset="1" stop-color="#7DC0B9"/>
</linearGradient>
<linearGradient id="paint8_linear_0_1" x1="1946" y1="-197" x2="936.649" y2="1149.56" gradientUnits="userSpaceOnUse">
<stop stop-color="#7DC0B9"/>
<stop offset="0.332247" stop-color="#B5D0C9"/>
<stop offset="0.653959" stop-color="#B5D0C9"/>
<stop offset="1" stop-color="#7DC0B9"/>
</linearGradient>
<linearGradient id="paint9_linear_0_1" x1="1927" y1="-331" x2="917.649" y2="1015.56" gradientUnits="userSpaceOnUse">
<stop stop-color="#7DC0B9"/>
<stop offset="0.332247" stop-color="#B5D0C9"/>
<stop offset="0.653959" stop-color="#B5D0C9"/>
<stop offset="1" stop-color="#7DC0B9"/>
</linearGradient>
<linearGradient id="paint10_linear_0_1" x1="1946" y1="-177" x2="936.649" y2="1169.56" gradientUnits="userSpaceOnUse">
<stop stop-color="#7DC0B9"/>
<stop offset="0.332247" stop-color="#B5D0C9"/>
<stop offset="0.653959" stop-color="#B5D0C9"/>
<stop offset="1" stop-color="#7DC0B9"/>
</linearGradient>
<linearGradient id="paint11_linear_0_1" x1="1927" y1="-308" x2="917.649" y2="1038.56" gradientUnits="userSpaceOnUse">
<stop stop-color="#7DC0B9"/>
<stop offset="0.332247" stop-color="#B5D0C9"/>
<stop offset="0.653959" stop-color="#B5D0C9"/>
<stop offset="1" stop-color="#7DC0B9"/>
</linearGradient>
<linearGradient id="paint12_linear_0_1" x1="1946" y1="-154" x2="936.649" y2="1192.56" gradientUnits="userSpaceOnUse">
<stop stop-color="#7DC0B9"/>
<stop offset="0.332247" stop-color="#B5D0C9"/>
<stop offset="0.653959" stop-color="#B5D0C9"/>
<stop offset="1" stop-color="#7DC0B9"/>
</linearGradient>
<linearGradient id="paint13_linear_0_1" x1="1927" y1="-288" x2="917.649" y2="1058.56" gradientUnits="userSpaceOnUse">
<stop stop-color="#7DC0B9"/>
<stop offset="0.332247" stop-color="#B5D0C9"/>
<stop offset="0.653959" stop-color="#B5D0C9"/>
<stop offset="1" stop-color="#7DC0B9"/>
</linearGradient>
<linearGradient id="paint14_linear_0_1" x1="1946" y1="-134" x2="936.649" y2="1212.56" gradientUnits="userSpaceOnUse">
<stop stop-color="#7DC0B9"/>
<stop offset="0.332247" stop-color="#B5D0C9"/>
<stop offset="0.653959" stop-color="#B5D0C9"/>
<stop offset="1" stop-color="#7DC0B9"/>
</linearGradient>
<linearGradient id="paint15_linear_0_1" x1="1927" y1="-268" x2="917.649" y2="1078.56" gradientUnits="userSpaceOnUse">
<stop stop-color="#7DC0B9"/>
<stop offset="0.332247" stop-color="#B5D0C9"/>
<stop offset="0.653959" stop-color="#B5D0C9"/>
<stop offset="1" stop-color="#7DC0B9"/>
</linearGradient>
<linearGradient id="paint16_linear_0_1" x1="1946" y1="-114" x2="936.649" y2="1232.56" gradientUnits="userSpaceOnUse">
<stop stop-color="#7DC0B9"/>
<stop offset="0.332247" stop-color="#B5D0C9"/>
<stop offset="0.653959" stop-color="#B5D0C9"/>
<stop offset="1" stop-color="#7DC0B9"/>
</linearGradient>
<linearGradient id="paint17_linear_0_1" x1="1927" y1="-429" x2="917.649" y2="917.557" gradientUnits="userSpaceOnUse">
<stop stop-color="#7DC0B9"/>
<stop offset="0.332247" stop-color="#B5D0C9"/>
<stop offset="0.653959" stop-color="#B5D0C9"/>
<stop offset="1" stop-color="#7DC0B9"/>
</linearGradient>
<clipPath id="clip0_0_1">
<rect width="1920" height="954" fill="white" transform="translate(0 -54)"/>
</clipPath>
</defs>
</svg>
