<svg width="1920" height="3294" viewBox="0 0 1920 3294" fill="none" xmlns="http://www.w3.org/2000/svg">
<path fill-rule="evenodd" clip-rule="evenodd" d="M0 2417.09V2995L478 3280.5C500.5 3290 558.8 3303.3 612 3280.5C658.091 3260.75 1377.91 3056.8 1775.61 2944.12C1836.96 2926.74 1890.64 2911.53 1933 2899.5V2512.59C1890.64 2500.56 1836.96 2485.35 1775.61 2467.97C1377.91 2355.29 658.091 2151.34 612 2131.59C558.8 2108.79 500.5 2122.09 478 2131.59L0 2417.09Z" fill="#E4F9F3"/>
<path fill-rule="evenodd" clip-rule="evenodd" d="M1907.47 457L1920 457V2103L1442 2388.5C1419.5 2398 1361.2 2411.3 1308 2388.5C1261.91 2368.75 542.092 2164.8 144.389 2052.12C83.0439 2034.74 29.3625 2019.53 -13 2007.5V1083.16C35.9835 1067.04 85.0056 1050.92 134.058 1034.78C725.208 840.293 1320.84 644.334 1907.47 457Z" fill="#F1F2F2"/>
<path fill-rule="evenodd" clip-rule="evenodd" d="M1933 -82H0V634L478 919.5C500.5 929 558.8 942.3 612 919.5C658.091 899.747 1377.91 695.799 1775.61 583.117C1836.96 565.736 1890.64 550.527 1933 538.5V-82Z" fill="#E4F9F3"/>
</svg>
