<svg display="none" xmlns="http://www.w3.org/2000/svg">

    <symbol id="phone-icon" viewBox="0 0 25 24">
        <path
            d="M19.8639 10.1421V9.57645C19.8639 9.49181 19.8639 9.44948 19.8634 9.41368C19.8247 6.7083 17.6409 4.52454 14.9355 4.4858C14.8997 4.48528 14.8574 4.48528 14.7728 4.48529H14.2071M10.2778 8.17314C9.82461 9.21293 10.054 10.4242 10.856 11.2262L13.2529 13.623C14.0549 14.4251 15.2661 14.6545 16.3059 14.2012C17.3457 13.748 18.557 13.9774 19.359 14.7794L20.8172 16.2376C20.8878 16.3083 20.9232 16.3436 20.9518 16.3747C21.6548 17.1399 21.6548 18.316 20.9518 19.0811C20.9232 19.1123 20.8878 19.1476 20.8172 19.2182L19.9309 20.1046C19.2091 20.8264 18.1685 21.1294 17.1721 20.9079C10.3825 19.3991 5.07995 14.0966 3.57115 7.307C3.34971 6.31054 3.65272 5.27001 4.37451 4.54821L5.26085 3.66187C5.3315 3.59123 5.36682 3.5559 5.39794 3.52731C6.1631 2.82423 7.33921 2.82423 8.10436 3.52731C8.13548 3.5559 8.17081 3.59123 8.24145 3.66187L9.69965 5.12007C10.5017 5.92212 10.7311 7.13336 10.2778 8.17314Z"
            stroke-width="2" stroke-linecap="round" />
    </symbol>

    <symbol id="mail-icon" viewBox="0 0 25 24">
        <path
            d="M11.87 19C11.3177 19 10.87 19.4477 10.87 20C10.87 20.5523 11.3177 21 11.87 21V19ZM21.4182 10.8995L20.4277 11.037V11.037L21.4182 10.8995ZM21.5929 16.8297L22.5235 17.1956V17.1956L21.5929 16.8297ZM19.3921 19.3573L18.9016 18.4858V18.4858L19.3921 19.3573ZM18.19 4.45483L18.6067 3.5458V3.5458L18.19 4.45483ZM20.3217 6.31092L19.4786 6.84874L20.3217 6.31092ZM7.17429 4.45483L6.75756 3.5458L6.75756 3.5458L7.17429 4.45483ZM2.9556 10.7619C2.87962 11.3089 3.26149 11.814 3.80853 11.8899C4.35556 11.9659 4.86061 11.5841 4.93659 11.037L2.9556 10.7619ZM5.04259 6.31092L4.19953 5.77311V5.77311L5.04259 6.31092ZM5.48972 7.7368L6.19683 7.02969L6.18426 7.01712L6.17124 7.005L5.48972 7.7368ZM20.49 6.87868L19.7829 6.17157V6.17157L20.49 6.87868ZM19.6319 7.7368L18.9248 7.02969L18.9248 7.02969L19.6319 7.7368ZM2.5 17C1.94772 17 1.5 17.4477 1.5 18C1.5 18.5523 1.94772 19 2.5 19V17ZM8.5 19C9.05228 19 9.5 18.5523 9.5 18C9.5 17.4477 9.05228 17 8.5 17V19ZM2.5 14C1.94772 14 1.5 14.4477 1.5 15C1.5 15.5523 1.94772 16 2.5 16V14ZM5.5 16C6.05228 16 6.5 15.5523 6.5 15C6.5 14.4477 6.05228 14 5.5 14V16ZM11.87 5H13.4942V3H11.87V5ZM13.4942 19H11.87V21H13.4942V19ZM20.4277 11.037C20.6482 12.6247 20.804 13.7525 20.8503 14.6372C20.8961 15.512 20.8268 16.0453 20.6623 16.4637L22.5235 17.1956C22.8386 16.3945 22.8999 15.5329 22.8476 14.5326C22.7957 13.5422 22.6243 12.3147 22.4087 10.7619L20.4277 11.037ZM13.4942 21C15.0619 21 16.3013 21.0009 17.2895 20.916C18.2875 20.8303 19.1324 20.6509 19.8826 20.2287L18.9016 18.4858C18.5098 18.7063 17.9911 18.8484 17.1183 18.9233C16.2357 18.9991 15.0971 19 13.4942 19V21ZM20.6623 16.4637C20.3255 17.3202 19.7036 18.0344 18.9016 18.4858L19.8826 20.2287C21.0856 19.5516 22.0184 18.4804 22.5235 17.1956L20.6623 16.4637ZM13.4942 5C14.744 5 15.6252 5.00068 16.3195 5.05393C17.0012 5.10621 17.4271 5.20519 17.7732 5.36387L18.6067 3.5458C17.9607 3.24964 17.2732 3.1212 16.4724 3.05978C15.684 2.99932 14.7135 3 13.4942 3V5ZM17.7732 5.36387C18.4727 5.6845 19.0648 6.20007 19.4786 6.84874L21.1647 5.77311C20.544 4.8001 19.6558 4.02676 18.6067 3.5458L17.7732 5.36387ZM11.87 3C10.6508 3 9.68021 2.99932 8.89185 3.05978C8.09103 3.1212 7.4036 3.24964 6.75756 3.5458L7.59101 5.36387C7.93713 5.20519 8.36306 5.10621 9.0448 5.05393C9.73901 5.00068 10.6202 5 11.87 5V3ZM4.93659 11.037C5.20624 9.09548 5.35411 8.07884 5.63151 7.36004L3.76563 6.63996C3.38413 7.62851 3.21006 8.92979 2.9556 10.7619L4.93659 11.037ZM5.63151 7.36004C5.70782 7.1623 5.79117 6.99684 5.88565 6.84874L4.19953 5.77311C4.02577 6.04548 3.88445 6.33209 3.76563 6.63996L5.63151 7.36004ZM6.75756 3.5458C5.70841 4.02676 4.82024 4.8001 4.19953 5.77311L5.88565 6.84874C6.29946 6.20006 6.89158 5.6845 7.59101 5.36387L6.75756 3.5458ZM6.17124 7.005L5.38009 6.2682L4.01705 7.7318L4.8082 8.4686L6.17124 7.005ZM19.7829 6.17157L18.9248 7.02969L20.339 8.44391L21.1971 7.58579L19.7829 6.17157ZM4.78262 8.4439C6.42929 10.0906 7.73393 11.3982 8.89202 12.2818C10.0732 13.183 11.2187 13.7368 12.5608 13.7368V11.7368C11.8318 11.7368 11.1085 11.4572 10.1052 10.6918C9.07885 9.9087 7.88349 8.71635 6.19683 7.02969L4.78262 8.4439ZM18.9248 7.02969C17.2381 8.71635 16.0427 9.90871 15.0164 10.6918C14.0131 11.4572 13.2898 11.7368 12.5608 11.7368V13.7368C13.9029 13.7368 15.0484 13.183 16.2296 12.2818C17.3876 11.3982 18.6923 10.0906 20.339 8.4439L18.9248 7.02969ZM2.5 19H8.5V17H2.5V19ZM2.5 16H5.5V14H2.5V16ZM22.4087 10.7619C22.134 8.78416 21.9542 7.41754 21.4915 6.38215L19.6655 7.19813C19.9832 7.90896 20.134 8.92268 20.4277 11.037L22.4087 10.7619ZM21.4915 6.38215C21.3965 6.16945 21.2887 5.96737 21.1647 5.77311L19.4786 6.84874C19.5465 6.95512 19.6082 7.06985 19.6655 7.19813L21.4915 6.38215ZM21.1971 7.58579L21.2856 7.49725L19.8714 6.08303L19.7829 6.17157L21.1971 7.58579Z" />
    </symbol>

    <symbol id="instagramm-icon" viewBox="0 0 24 24">
        <path
            d="M19.7 5.95C19.7 6.86127 18.9613 7.6 18.05 7.6C17.1387 7.6 16.4 6.86127 16.4 5.95C16.4 5.03873 17.1387 4.3 18.05 4.3C18.9613 4.3 19.7 5.03873 19.7 5.95Z" />
        <path fill-rule="evenodd" clip-rule="evenodd"
            d="M12 17.5C15.0376 17.5 17.5 15.0376 17.5 12C17.5 8.96243 15.0376 6.5 12 6.5C8.96243 6.5 6.5 8.96243 6.5 12C6.5 15.0376 8.96243 17.5 12 17.5ZM12 15.3C13.8225 15.3 15.3 13.8225 15.3 12C15.3 10.1775 13.8225 8.7 12 8.7C10.1775 8.7 8.7 10.1775 8.7 12C8.7 13.8225 10.1775 15.3 12 15.3Z" />
        <path fill-rule="evenodd" clip-rule="evenodd"
            d="M1 11.56C1 7.86365 1 6.01548 1.71936 4.60366C2.35212 3.36179 3.36179 2.35212 4.60366 1.71936C6.01548 1 7.86365 1 11.56 1H12.44C16.1363 1 17.9845 1 19.3963 1.71936C20.6382 2.35212 21.6479 3.36179 22.2806 4.60366C23 6.01548 23 7.86365 23 11.56V12.44C23 16.1363 23 17.9845 22.2806 19.3963C21.6479 20.6382 20.6382 21.6479 19.3963 22.2806C17.9845 23 16.1363 23 12.44 23H11.56C7.86365 23 6.01548 23 4.60366 22.2806C3.36179 21.6479 2.35212 20.6382 1.71936 19.3963C1 17.9845 1 16.1363 1 12.44V11.56ZM11.56 3.2H12.44C14.3245 3.2 15.6055 3.20171 16.5957 3.28261C17.5602 3.36142 18.0535 3.50425 18.3976 3.67957C19.2255 4.10141 19.8986 4.77453 20.3204 5.60244C20.4957 5.94652 20.6386 6.43977 20.7174 7.40428C20.7983 8.39448 20.8 9.67552 20.8 11.56V12.44C20.8 14.3245 20.7983 15.6055 20.7174 16.5957C20.6386 17.5602 20.4957 18.0535 20.3204 18.3976C19.8986 19.2255 19.2255 19.8986 18.3976 20.3204C18.0535 20.4957 17.5602 20.6386 16.5957 20.7174C15.6055 20.7983 14.3245 20.8 12.44 20.8H11.56C9.67552 20.8 8.39448 20.7983 7.40428 20.7174C6.43977 20.6386 5.94652 20.4957 5.60244 20.3204C4.77453 19.8986 4.10141 19.2255 3.67957 18.3976C3.50425 18.0535 3.36142 17.5602 3.28261 16.5957C3.20171 15.6055 3.2 14.3245 3.2 12.44V11.56C3.2 9.67552 3.20171 8.39448 3.28261 7.40428C3.36142 6.43977 3.50425 5.94652 3.67957 5.60244C4.10141 4.77453 4.77453 4.10141 5.60244 3.67957C5.94652 3.50425 6.43977 3.36142 7.40428 3.28261C8.39448 3.20171 9.67552 3.2 11.56 3.2Z" />
    </symbol>

    <symbol id="location-icon" viewBox="0 0 24 24">
        <path
            d="M9 4C7.94444 4 6.88889 4.33333 6 5L3.8 6.65C3.29639 7.02771 3 7.62049 3 8.25V16.879C3 18.474 4.82083 19.3844 6.09677 18.4274C6.95699 17.7823 7.97849 17.4597 9 17.4597M9 4C10.0556 4 11.1111 4.33333 12 5L12.0968 5.07258C12.957 5.71774 13.9785 6.04032 15 6.04032M9 4V4.75V16.75V17.4597M15 6.04032C16.0215 6.04032 17.043 5.71774 17.9032 5.07258C19.1792 4.11562 21 5.02604 21 6.62097V15.25C21 15.8795 20.7036 16.4723 20.2 16.85L18 18.5C17.1111 19.1667 16.0556 19.5 15 19.5M15 6.04032V6.75V18.75V19.5M15 19.5C13.9444 19.5 12.8889 19.1667 12 18.5L11.9032 18.4274C11.043 17.7823 10.0215 17.4597 9 17.4597"
            stroke-width="2" stroke-linecap="round" />
    </symbol>


    <symbol id="arrow-left" viewBox="0 0 24 24">
        <path
            d="M20 13C20.5523 13 21 12.5523 21 12C21 11.4477 20.5523 11 20 11V13ZM4 11C3.44772 11 3 11.4477 3 12C3 12.5523 3.44772 13 4 13V11ZM7.29606 17.7103C7.68832 18.099 8.32148 18.0962 8.71025 17.7039C9.09903 17.3117 9.09621 16.6785 8.70395 16.2897L7.29606 17.7103ZM6.23703 15.2527L6.94098 14.5424L6.23703 15.2527ZM6.23703 8.74731L5.53309 8.03705L6.23703 8.74731ZM8.70395 7.71025C9.09621 7.32148 9.09903 6.68832 8.71026 6.29606C8.32148 5.90379 7.68832 5.90097 7.29606 6.28975L8.70395 7.71025ZM4.01989 12.3133L3.02792 12.4398L3.02792 12.4398L4.01989 12.3133ZM4.01989 11.6867L3.02792 11.5602L3.02792 11.5602L4.01989 11.6867ZM20 11H4V13H20V11ZM8.70395 16.2897L6.94098 14.5424L5.53309 15.9629L7.29606 17.7103L8.70395 16.2897ZM6.94098 9.45756L8.70395 7.71025L7.29606 6.28975L5.53309 8.03705L6.94098 9.45756ZM6.94098 14.5424C6.22131 13.8292 5.74265 13.3526 5.42152 12.9528C5.11306 12.5687 5.0331 12.3535 5.01186 12.1869L3.02792 12.4398C3.11492 13.1224 3.44057 13.6802 3.86213 14.2051C4.27103 14.7142 4.84682 15.2828 5.53309 15.9629L6.94098 14.5424ZM5.53309 8.03705C4.84682 8.71722 4.27103 9.28577 3.86213 9.79492C3.44057 10.3198 3.11492 10.8776 3.02792 11.5602L5.01186 11.8131C5.0331 11.6465 5.11306 11.4313 5.42152 11.0472C5.74265 10.6474 6.22131 10.1708 6.94098 9.45756L5.53309 8.03705ZM5.01186 12.1869C4.99605 12.0628 4.99605 11.9372 5.01186 11.8131L3.02792 11.5602C2.99069 11.8522 2.99069 12.1478 3.02792 12.4398L5.01186 12.1869Z" />
    </symbol>


    <symbol id="arrow-right" viewBox="0 0 24 24">
        <path
            d="M4 11C3.44772 11 3 11.4477 3 12C3 12.5523 3.44772 13 4 13L4 11ZM20 13C20.5523 13 21 12.5523 21 12C21 11.4477 20.5523 11 20 11V13ZM16.7039 6.28975C16.3117 5.90097 15.6785 5.90379 15.2897 6.29606C14.901 6.68832 14.9038 7.32148 15.2961 7.71025L16.7039 6.28975ZM17.763 8.74731L17.059 9.45756V9.45756L17.763 8.74731ZM17.763 15.2527L18.4669 15.9629L17.763 15.2527ZM15.2961 16.2897C14.9038 16.6785 14.901 17.3117 15.2897 17.7039C15.6785 18.0962 16.3117 18.099 16.7039 17.7103L15.2961 16.2897ZM19.9801 11.6867L20.9721 11.5602V11.5602L19.9801 11.6867ZM19.9801 12.3133L20.9721 12.4398V12.4398L19.9801 12.3133ZM4 13L20 13V11L4 11L4 13ZM15.2961 7.71025L17.059 9.45756L18.4669 8.03705L16.7039 6.28975L15.2961 7.71025ZM17.059 14.5424L15.2961 16.2897L16.7039 17.7103L18.4669 15.9629L17.059 14.5424ZM17.059 9.45756C17.7787 10.1708 18.2574 10.6474 18.5785 11.0472C18.8869 11.4313 18.9669 11.6465 18.9881 11.8131L20.9721 11.5602C20.8851 10.8776 20.5594 10.3198 20.1379 9.79492C19.729 9.28576 19.1532 8.71722 18.4669 8.03705L17.059 9.45756ZM18.4669 15.9629C19.1532 15.2828 19.729 14.7142 20.1379 14.2051C20.5594 13.6802 20.8851 13.1224 20.9721 12.4398L18.9881 12.1869C18.9669 12.3535 18.8869 12.5687 18.5785 12.9528C18.2574 13.3526 17.7787 13.8292 17.059 14.5424L18.4669 15.9629ZM18.9881 11.8131C19.004 11.9372 19.004 12.0628 18.9881 12.1869L20.9721 12.4398C21.0093 12.1478 21.0093 11.8522 20.9721 11.5602L18.9881 11.8131Z" />
    </symbol>

    <symbol id="plus-icon" viewBox="0 0 24 24">
        <path d="M4 12H20M12 20V12L12 4" stroke-width="2" stroke-linecap="round" />
    </symbol>

    <symbol id="search-plus" viewBox="0 0 24 24">
        <path
            d="M19.5355 18.1215C19.145 17.7309 18.5119 17.7309 18.1213 18.1214C17.7308 18.512 17.7308 19.1451 18.1213 19.5357L19.5355 18.1215ZM22.1212 23.5356C22.5117 23.9261 23.1449 23.9261 23.5354 23.5356C23.926 23.1451 23.926 22.5119 23.5354 22.1214L22.1212 23.5356ZM8 10C7.44772 10 7 10.4477 7 11C7 11.5523 7.44772 12 8 12V10ZM14 12C14.5523 12 15 11.5523 15 11C15 10.4477 14.5523 10 14 10V12ZM10 14C10 14.5523 10.4477 15 11 15C11.5523 15 12 14.5523 12 14H10ZM12 8C12 7.44772 11.5523 7 11 7C10.4477 7 10 7.44772 10 8H12ZM18.1213 19.5357L22.1212 23.5356L23.5354 22.1214L19.5355 18.1215L18.1213 19.5357ZM8 12H14V10H8V12ZM12 14V8H10V14H12ZM11 19C6.58172 19 3 15.4183 3 11H1C1 16.5228 5.47715 21 11 21V19ZM19 11C19 15.4183 15.4183 19 11 19V21C16.5228 21 21 16.5228 21 11H19ZM11 3C15.4183 3 19 6.58172 19 11H21C21 5.47715 16.5228 1 11 1V3ZM11 1C5.47715 1 1 5.47715 1 11H3C3 6.58172 6.58172 3 11 3V1Z" />
    </symbol>


    <symbol id="play-icon" viewBox="0 0 24 24">
        <path
            d="M14.7368 5.87809C18.2603 7.88708 20.022 8.89157 20.6132 10.203C21.1289 11.3469 21.1289 12.6531 20.6132 13.797C20.022 15.1084 18.2603 16.1129 14.7368 18.1219C11.2134 20.1309 9.45168 21.1354 8.00606 20.9853C6.74512 20.8544 5.59964 20.2013 4.8544 19.1883C4 18.027 4 16.018 4 12C4 7.98203 4 5.97304 4.8544 4.81167C5.59964 3.79868 6.74512 3.14555 8.00606 3.01467C9.45168 2.86461 11.2134 3.86911 14.7368 5.87809Z"
            stroke-width="2" />
    </symbol>

    <symbol id="close-icon" viewBox="0 0 24 24">
        <path d="M20 20L4 4m16 0L4 20"></path>
    </symbol>
</svg>