<svg width="1181" height="146" viewBox="0 0 1181 146" fill="none" xmlns="http://www.w3.org/2000/svg">
<path d="M0.538526 123.457V2.36579H24.0697L66.1511 96.8341H60.6547L102.736 2.36579H126.096V123.457H101.706V41.1837H108.576L70.9604 123.457H55.5019L17.7146 41.1837H24.9285V123.457H0.538526ZM194.448 125.346C179.333 125.346 167.539 121.281 159.066 113.151C150.592 105.021 146.355 93.9715 146.355 80.0016C146.355 70.9555 148.13 63.0545 151.68 56.2986C155.344 49.5427 160.382 44.2754 166.795 40.4966C173.322 36.6034 180.936 34.6568 189.639 34.6568C198.227 34.6568 205.384 36.4889 211.109 40.1531C216.949 43.8174 221.3 48.9702 224.163 55.6116C227.14 62.1385 228.629 69.7532 228.629 78.4557V84.4674H167.654V71.5853H209.735L206.815 73.99C206.815 66.776 205.326 61.3369 202.349 57.6727C199.487 53.894 195.307 52.0046 189.811 52.0046C183.742 52.0046 179.047 54.2375 175.726 58.7033C172.52 63.169 170.917 69.5814 170.917 77.9405V80.6886C170.917 89.1622 172.978 95.46 177.1 99.5823C181.337 103.705 187.406 105.766 195.307 105.766C200.002 105.766 204.41 105.193 208.533 104.048C212.769 102.789 216.777 100.842 220.556 98.2082L227.77 115.384C223.419 118.59 218.38 121.052 212.655 122.77C207.044 124.488 200.975 125.346 194.448 125.346ZM240.378 145.786V104.048H250.684C253.775 98.8953 256.008 92.9409 257.382 86.185C258.756 79.4291 259.443 70.9555 259.443 60.7644V36.3744H329.865V104.048H344.121V145.786H322.308V123.457H262.192V145.786H240.378ZM273.528 104.22H305.647V55.7833H281.085V67.1195C281.085 73.8755 280.398 80.6314 279.024 87.3873C277.765 94.0287 275.933 99.6396 273.528 104.22ZM357.766 126.033L350.037 105.766C353.701 104.621 356.792 103.075 359.312 101.128C361.831 99.1815 363.835 96.6624 365.323 93.5707C366.926 90.479 368.071 86.643 368.758 82.0627C369.445 77.4824 369.789 72.0433 369.789 65.7455V36.3744H442.787V123.457H417.023V56.1269H393.148V66.6043C393.148 78.513 391.889 88.5896 389.37 96.8341C386.851 105.079 383.015 111.606 377.862 116.415C372.709 121.224 366.01 124.43 357.766 126.033ZM499.996 125.346C492.438 125.346 485.797 123.514 480.071 119.85C474.346 116.186 469.88 110.976 466.674 104.22C463.468 97.4639 461.865 89.3339 461.865 79.8298C461.865 70.4402 463.468 62.3675 466.674 55.6116C469.88 48.8557 474.346 43.7028 480.071 40.1531C485.797 36.4889 492.438 34.6568 499.996 34.6568C506.981 34.6568 513.221 36.3744 518.717 39.8096C524.328 43.1303 527.993 47.6533 529.71 53.3787H527.821L529.882 36.3744H554.787C554.444 40.1531 554.1 43.9891 553.757 47.8824C553.528 51.6611 553.413 55.3826 553.413 59.0468V123.457H527.649L527.477 107.14H529.538C527.706 112.636 524.042 117.045 518.546 120.365C513.049 123.686 506.866 125.346 499.996 125.346ZM507.897 105.766C513.851 105.766 518.66 103.647 522.324 99.4105C525.989 95.1738 527.821 88.6469 527.821 79.8298C527.821 71.0128 525.989 64.5431 522.324 60.4209C518.66 56.2986 513.851 54.2375 507.897 54.2375C501.942 54.2375 497.133 56.2986 493.469 60.4209C489.804 64.5431 487.972 71.0128 487.972 79.8298C487.972 88.6469 489.747 95.1738 493.297 99.4105C496.961 103.647 501.828 105.766 507.897 105.766ZM576.68 123.457V36.3744H600.039V97.5212H594.371L640.403 36.3744H661.702V123.457H638.342V62.3102H644.01L597.807 123.457H576.68ZM618.933 28.8169C612.635 28.8169 607.196 27.7864 602.616 25.7252C598.036 23.6641 594.314 20.8014 591.451 17.1372C588.703 13.473 586.814 9.29347 585.783 4.59868L598.494 0.476424C600.326 5.62924 602.902 9.40798 606.223 11.8126C609.544 14.1028 613.895 15.2478 619.277 15.2478C624.544 15.2478 628.838 14.0455 632.159 11.6409C635.479 9.23621 638.113 5.57198 640.06 0.648182L652.083 4.59868C650.022 12.1561 646.129 18.1105 640.403 22.4618C634.792 26.6985 627.636 28.8169 618.933 28.8169ZM684.198 123.457V36.3744H709.79V69.1807H744.143V36.3744H769.735V123.457H744.143V88.9331H709.79V123.457H684.198ZM842.065 123.457V2.36579H865.596L907.677 96.8341H902.181L944.262 2.36579H967.622V123.457H943.232V41.1837H950.102L912.487 123.457H897.028L859.241 41.1837H866.455V123.457H842.065ZM1036.15 125.346C1020.57 125.346 1008.55 120.022 1000.08 109.373C991.603 98.7235 987.366 83.7803 987.366 64.5431C987.366 51.0313 989.542 39.5233 993.893 30.0192C998.245 20.4007 1004.43 13.0722 1012.44 8.03389C1020.57 2.99558 1030.31 0.476424 1041.64 0.476424C1048.17 0.476424 1054.64 1.62149 1061.05 3.91163C1067.58 6.08727 1073.25 9.29346 1078.06 13.5302L1069.47 33.2827C1065.23 29.733 1060.71 27.0993 1055.9 25.3817C1051.09 23.5496 1046.22 22.6335 1041.3 22.6335C1031.91 22.6335 1024.75 25.7252 1019.83 31.9086C1014.91 38.092 1012.44 47.3098 1012.44 59.5621V70.7265H1010.21C1011.13 65.2302 1013.02 60.5926 1015.88 56.8139C1018.74 52.9207 1022.41 49.9435 1026.87 47.8824C1031.34 45.8212 1036.26 44.7907 1041.64 44.7907C1048.51 44.7907 1054.64 46.5083 1060.02 49.9435C1065.52 53.2642 1069.81 57.9017 1072.9 63.8561C1075.99 69.696 1077.54 76.3946 1077.54 83.9521C1077.54 91.9676 1075.77 99.1243 1072.22 105.422C1068.67 111.606 1063.8 116.472 1057.62 120.022C1051.55 123.572 1044.39 125.346 1036.15 125.346ZM1034.77 104.563C1038.44 104.563 1041.64 103.762 1044.39 102.159C1047.14 100.556 1049.26 98.2655 1050.75 95.2883C1052.23 92.3111 1052.98 88.8759 1052.98 84.9827C1052.98 81.0894 1052.23 77.7114 1050.75 74.8488C1049.26 71.8716 1047.14 69.5814 1044.39 67.9783C1041.64 66.2607 1038.44 65.4019 1034.77 65.4019C1031.11 65.4019 1027.9 66.2607 1025.15 67.9783C1022.41 69.5814 1020.23 71.8716 1018.63 74.8488C1017.14 77.7114 1016.39 81.0894 1016.39 84.9827C1016.39 88.8759 1017.14 92.3111 1018.63 95.2883C1020.23 98.2655 1022.41 100.556 1025.15 102.159C1027.9 103.762 1031.11 104.563 1034.77 104.563ZM1134.67 125.346C1120.13 125.346 1108.91 119.907 1101 109.029C1093.22 98.0365 1089.33 82.578 1089.33 62.6538C1089.33 42.386 1093.22 26.9848 1101 16.4502C1108.91 5.801 1120.13 0.476424 1134.67 0.476424C1149.33 0.476424 1160.55 5.801 1168.33 16.4502C1176.12 26.9848 1180.01 42.3288 1180.01 62.482C1180.01 82.5207 1176.12 98.0365 1168.33 109.029C1160.55 119.907 1149.33 125.346 1134.67 125.346ZM1134.67 103.705C1141.31 103.705 1146.24 100.441 1149.44 93.9142C1152.76 87.2728 1154.42 76.7954 1154.42 62.482C1154.42 48.1686 1152.76 37.863 1149.44 31.5651C1146.24 25.2672 1141.31 22.1183 1134.67 22.1183C1128.03 22.1183 1123.05 25.2672 1119.73 31.5651C1116.52 37.863 1114.92 48.1114 1114.92 62.3102C1114.92 76.7381 1116.58 87.2728 1119.9 93.9142C1123.22 100.441 1128.14 103.705 1134.67 103.705Z" fill="url(#paint0_linear_1_1347)"/>
<defs>
<linearGradient id="paint0_linear_1_1347" x1="1187" y1="99.599" x2="7.65649" y2="35.869" gradientUnits="userSpaceOnUse">
<stop stop-color="#7DC0B9"/>
<stop offset="1" stop-color="#B5D0C9"/>
</linearGradient>
</defs>
</svg>
